<svg width="67" height="67" viewBox="0 0 67 67" fill="none" xmlns="http://www.w3.org/2000/svg">
<path d="M45.9215 27.2842C45.2315 27.2842 44.6702 26.7559 44.6702 26.1064C44.6702 25.457 45.2315 24.9287 45.9215 24.9287C46.6115 24.9287 47.1729 25.457 47.1729 26.1064C47.1729 26.7559 46.6116 27.2842 45.9215 27.2842Z" fill="#3E56D1"/>
<path d="M32.7619 46.3242C32.3867 47.6568 32.1914 49.0661 32.1914 50.5199C32.1914 50.8665 32.2067 51.2125 32.2343 51.5586H22.7695V46.3242H32.7619ZM59.1484 0H7.85156C3.52196 0 0 3.52196 0 7.85156V59.1484C0 63.478 3.52196 67 7.85156 67H42.8718C41.7467 66.1576 40.5296 65.171 39.3376 64.0654C38.5166 63.3032 37.7667 62.5365 37.0859 61.7656H7.85156C6.40853 61.7656 5.23438 60.5915 5.23438 59.1484V7.85156C5.23438 6.40853 6.40853 5.23438 7.85156 5.23438H59.1484C60.5915 5.23438 61.7656 6.40853 61.7656 7.85156V36.6662C63.6846 37.1411 65.4634 38.0126 67 39.2374V7.85156C67 3.52196 63.478 0 59.1484 0ZM12.3008 51.5586H17.5352V46.3242H12.3008V51.5586ZM17.5352 30.8828H12.3008V36.1172H17.5352V30.8828ZM17.5352 15.4414H12.3008V20.6758H17.5352V15.4414ZM54.5684 30.8828H22.7695V36.1172H54.5684V30.8828ZM54.6992 15.4414H22.7695V20.6758H54.6992V15.4414Z" fill="url(#paint0_linear)"/>
<path d="M53.9985 63.4761C47.5288 63.4761 44.2939 60.7254 44.2939 55.2241V43.5054H51.9966V55.0044C51.9966 56.16 52.3831 56.9128 53.1562 57.2627C53.4248 57.3848 53.7463 57.4458 54.1206 57.4458C55.1785 57.4458 55.8459 56.9412 56.1226 55.9321C56.2039 55.631 56.2446 55.3055 56.2446 54.9556V43.5054H62.9951V55.2241C62.9951 60.7254 59.9963 63.4761 53.9985 63.4761Z" fill="#3E56D1"/>
<defs>
<linearGradient id="paint0_linear" x1="33.5" y1="0" x2="33.5" y2="67" gradientUnits="userSpaceOnUse">
<stop stop-color="#3E56D1"/>
<stop offset="1" stop-color="#009EFD"/>
</linearGradient>
</defs>
</svg>
