<svg width="89" height="16" viewBox="0 0 89 16" fill="none" xmlns="http://www.w3.org/2000/svg">
<path d="M7.91895 15.3428C3.26074 15.3428 0.931641 13.3623 0.931641 9.40137V0.963867H6.47754V9.24316C6.47754 10.0752 6.75586 10.6172 7.3125 10.8691C7.50586 10.957 7.7373 11.001 8.00684 11.001C8.76855 11.001 9.24902 10.6377 9.44824 9.91113C9.50684 9.69434 9.53613 9.45996 9.53613 9.20801V0.963867H14.3965V9.40137C14.3965 13.3623 12.2373 15.3428 7.91895 15.3428ZM16.4268 0.963867H17.8506L25.5146 6.43066V0.963867H30.4629V15H28.5732L21.3574 10.1748V15H16.4268V0.963867ZM32.0537 0.963867H45.3428V5.5166H41.4316V15H35.9648V5.5166H32.0537V0.963867ZM53.7451 15.3428C49.0869 15.3428 46.7578 13.3623 46.7578 9.40137V0.963867H52.3037V9.24316C52.3037 10.0752 52.582 10.6172 53.1387 10.8691C53.332 10.957 53.5635 11.001 53.833 11.001C54.5947 11.001 55.0752 10.6377 55.2744 9.91113C55.333 9.69434 55.3623 9.45996 55.3623 9.20801V0.963867H60.2227V9.40137C60.2227 13.3623 58.0635 15.3428 53.7451 15.3428ZM62.2529 0.963867H63.6768L71.3408 6.43066V0.963867H76.2891V15H74.3994L67.1836 10.1748V15H62.2529V0.963867ZM78.46 0.963867H88.5762V5.00684H83.9268V6.1582H88.5586V9.60352H83.9268V10.9307H88.8838V15H78.46V0.963867Z" fill="#3E56D1"/>
</svg>
