<svg width="158" height="31" viewBox="0 0 158 31" fill="none" xmlns="http://www.w3.org/2000/svg">
<rect width="158" height="31" rx="5" fill="#EEEEEE"/>
<path d="M17.368 20.13C16.5707 20.13 15.8773 19.9393 15.288 19.558C14.6987 19.1767 14.2437 18.635 13.923 17.933C13.6023 17.231 13.442 16.4033 13.442 15.45C13.442 14.4967 13.6023 13.669 13.923 12.967C14.2523 12.265 14.716 11.7233 15.314 11.342C15.912 10.9607 16.614 10.77 17.42 10.77C18.0613 10.77 18.6333 10.8957 19.136 11.147C19.6387 11.3983 20.0113 11.745 20.254 12.187L19.578 12.85C19.1013 12.122 18.3863 11.758 17.433 11.758C16.5577 11.758 15.873 12.083 15.379 12.733C14.8937 13.3743 14.651 14.28 14.651 15.45C14.651 16.6113 14.8893 17.517 15.366 18.167C15.8513 18.817 16.5187 19.142 17.368 19.142C17.888 19.142 18.3257 19.0553 18.681 18.882C19.045 18.7 19.344 18.4227 19.578 18.05L20.254 18.713C20.0027 19.1637 19.6257 19.5147 19.123 19.766C18.6203 20.0087 18.0353 20.13 17.368 20.13ZM21.4755 15.086C21.4755 14.3493 21.4625 13.8207 21.4365 13.5H22.4635C22.4982 13.8467 22.5155 14.228 22.5155 14.644V14.774H22.5545C22.7192 14.3233 22.9835 13.9767 23.3475 13.734C23.7115 13.4913 24.1405 13.37 24.6345 13.37C24.7732 13.37 24.8988 13.383 25.0115 13.409V14.319C24.8988 14.293 24.7472 14.28 24.5565 14.28C24.1925 14.28 23.8588 14.3927 23.5555 14.618C23.2522 14.8347 23.0138 15.1337 22.8405 15.515C22.6672 15.8963 22.5805 16.3123 22.5805 16.763V20H21.4755V15.086ZM31.4154 17.179H26.7354C26.7961 17.8377 26.9911 18.3403 27.3204 18.687C27.6497 19.025 28.1047 19.194 28.6854 19.194C29.4654 19.194 30.0851 18.8863 30.5444 18.271L31.1684 18.869C30.9171 19.2677 30.5661 19.5797 30.1154 19.805C29.6734 20.0217 29.1837 20.13 28.6464 20.13C27.6844 20.13 26.9391 19.8353 26.4104 19.246C25.8817 18.6567 25.6174 17.829 25.6174 16.763C25.6174 15.7057 25.8817 14.878 26.4104 14.28C26.9477 13.6733 27.6844 13.37 28.6204 13.37C29.4957 13.37 30.1804 13.669 30.6744 14.267C31.1684 14.8563 31.4154 15.684 31.4154 16.75V17.179ZM30.4014 16.269C30.4014 15.645 30.2367 15.1553 29.9074 14.8C29.5867 14.4447 29.1404 14.267 28.5684 14.267C28.0311 14.267 27.6021 14.449 27.2814 14.813C26.9694 15.177 26.7874 15.6927 26.7354 16.36H30.4014V16.269ZM34.5819 20.13C33.9406 20.13 33.4163 19.9437 33.0089 19.571C32.6016 19.1983 32.3979 18.7173 32.3979 18.128C32.3979 17.478 32.6406 16.9753 33.1259 16.62C33.6199 16.2647 34.3176 16.087 35.2189 16.087H36.5579V15.749C36.5579 15.2637 36.4279 14.8953 36.1679 14.644C35.9166 14.384 35.5483 14.254 35.0629 14.254C34.6729 14.254 34.3133 14.3363 33.9839 14.501C33.6633 14.657 33.3946 14.8867 33.1779 15.19L32.6189 14.514C32.9136 14.1413 33.2733 13.8597 33.6979 13.669C34.1226 13.4697 34.5949 13.37 35.1149 13.37C35.9296 13.37 36.5579 13.5693 36.9999 13.968C37.4419 14.3667 37.6629 14.9387 37.6629 15.684V18.739C37.6629 19.077 37.7149 19.4973 37.8189 20H36.8569C36.7789 19.8007 36.7226 19.4973 36.6879 19.09H36.6619C36.4193 19.428 36.1203 19.688 35.7649 19.87C35.4096 20.0433 35.0153 20.13 34.5819 20.13ZM34.7509 19.259C35.0803 19.259 35.3836 19.1983 35.6609 19.077C35.9383 18.947 36.1549 18.7737 36.3109 18.557C36.4756 18.3403 36.5579 18.102 36.5579 17.842V16.88H35.1799C34.6339 16.88 34.2136 16.9883 33.9189 17.205C33.6243 17.4217 33.4769 17.7293 33.4769 18.128C33.4769 18.4747 33.5896 18.752 33.8149 18.96C34.0489 19.1593 34.3609 19.259 34.7509 19.259ZM41.7017 20.13C41.1297 20.13 40.679 19.948 40.3497 19.584C40.0203 19.2113 39.8557 18.7 39.8557 18.05V14.358H38.6857V13.5H39.8557V11.771L40.9087 11.446H40.9607V13.5H42.8067V14.358H40.9607V17.946C40.9607 18.388 41.043 18.7173 41.2077 18.934C41.3723 19.142 41.628 19.246 41.9747 19.246C42.3473 19.246 42.6507 19.1983 42.8847 19.103L42.9627 19.922C42.6767 20.0607 42.2563 20.13 41.7017 20.13ZM49.7221 17.179H45.0421C45.1027 17.8377 45.2977 18.3403 45.6271 18.687C45.9564 19.025 46.4114 19.194 46.9921 19.194C47.7721 19.194 48.3917 18.8863 48.8511 18.271L49.4751 18.869C49.2237 19.2677 48.8727 19.5797 48.4221 19.805C47.9801 20.0217 47.4904 20.13 46.9531 20.13C45.9911 20.13 45.2457 19.8353 44.7171 19.246C44.1884 18.6567 43.9241 17.829 43.9241 16.763C43.9241 15.7057 44.1884 14.878 44.7171 14.28C45.2544 13.6733 45.9911 13.37 46.9271 13.37C47.8024 13.37 48.4871 13.669 48.9811 14.267C49.4751 14.8563 49.7221 15.684 49.7221 16.75V17.179ZM48.7081 16.269C48.7081 15.645 48.5434 15.1553 48.2141 14.8C47.8934 14.4447 47.4471 14.267 46.8751 14.267C46.3377 14.267 45.9087 14.449 45.5881 14.813C45.2761 15.177 45.0941 15.6927 45.0421 16.36H48.7081V16.269ZM56.4657 16.386L53.5667 10.9H54.8927L57.0637 15.242L59.2347 10.9H60.5607L57.6747 16.386V20H56.4657V16.386ZM63.6374 20.13C62.9961 20.13 62.4371 19.9957 61.9604 19.727C61.4924 19.4497 61.1284 19.0553 60.8684 18.544C60.6171 18.0327 60.4914 17.4347 60.4914 16.75C60.4914 16.0653 60.6171 15.4673 60.8684 14.956C61.1284 14.4447 61.4924 14.0547 61.9604 13.786C62.4371 13.5087 62.9961 13.37 63.6374 13.37C64.6081 13.37 65.3751 13.6733 65.9384 14.28C66.5104 14.8867 66.7964 15.71 66.7964 16.75C66.7964 17.79 66.5104 18.6133 65.9384 19.22C65.3751 19.8267 64.6081 20.13 63.6374 20.13ZM63.6374 19.285C64.2788 19.285 64.7814 19.0597 65.1454 18.609C65.5094 18.1583 65.6914 17.5387 65.6914 16.75C65.6914 15.9613 65.5094 15.3417 65.1454 14.891C64.7814 14.4403 64.2788 14.215 63.6374 14.215C63.0048 14.215 62.5064 14.4403 62.1424 14.891C61.7784 15.3417 61.5964 15.9613 61.5964 16.75C61.5964 17.5387 61.7784 18.1583 62.1424 18.609C62.5064 19.0597 63.0048 19.285 63.6374 19.285ZM70.3278 20.13C69.5824 20.13 69.0148 19.8873 68.6248 19.402C68.2434 18.9167 68.0528 18.2017 68.0528 17.257V13.5H69.1578V17.27C69.1578 18.5873 69.6258 19.246 70.5618 19.246C70.9258 19.246 71.2551 19.155 71.5498 18.973C71.8444 18.7823 72.0741 18.5223 72.2388 18.193C72.4034 17.855 72.4858 17.478 72.4858 17.062V13.5H73.5908V18.622C73.5908 19.0553 73.6298 19.5147 73.7078 20H72.6938C72.6158 19.6187 72.5724 19.233 72.5638 18.843H72.5248C72.3341 19.2417 72.0394 19.558 71.6408 19.792C71.2508 20.0173 70.8131 20.13 70.3278 20.13ZM77.5786 20.13C77.0066 20.13 76.556 19.948 76.2266 19.584C75.8973 19.2113 75.7326 18.7 75.7326 18.05V14.358H74.5626V13.5H75.7326V11.771L76.7856 11.446H76.8376V13.5H78.6836V14.358H76.8376V17.946C76.8376 18.388 76.92 18.7173 77.0846 18.934C77.2493 19.142 77.505 19.246 77.8516 19.246C78.2243 19.246 78.5276 19.1983 78.7616 19.103L78.8396 19.922C78.5536 20.0607 78.1333 20.13 77.5786 20.13ZM82.401 20.13C81.6557 20.13 81.088 19.8873 80.698 19.402C80.3167 18.9167 80.126 18.2017 80.126 17.257V13.5H81.231V17.27C81.231 18.5873 81.699 19.246 82.635 19.246C82.999 19.246 83.3283 19.155 83.623 18.973C83.9177 18.7823 84.1473 18.5223 84.312 18.193C84.4767 17.855 84.559 17.478 84.559 17.062V13.5H85.664V18.622C85.664 19.0553 85.703 19.5147 85.781 20H84.767C84.689 19.6187 84.6457 19.233 84.637 18.843H84.598C84.4073 19.2417 84.1127 19.558 83.714 19.792C83.324 20.0173 82.8863 20.13 82.401 20.13ZM90.3799 20.13C89.9725 20.13 89.5782 20.026 89.1969 19.818C88.8155 19.6013 88.5295 19.3197 88.3389 18.973H88.3129C88.3215 19.2503 88.3129 19.5927 88.2869 20H87.2729C87.2989 19.714 87.3119 19.168 87.3119 18.362V10.354H88.4169V14.371H88.4429C88.8762 13.7037 89.5305 13.37 90.4059 13.37C91.2379 13.37 91.8965 13.6647 92.3819 14.254C92.8672 14.8347 93.1099 15.6277 93.1099 16.633C93.1099 17.7163 92.8629 18.57 92.3689 19.194C91.8835 19.818 91.2205 20.13 90.3799 20.13ZM90.2239 19.246C90.7785 19.246 91.2119 19.0163 91.5239 18.557C91.8445 18.0977 92.0049 17.465 92.0049 16.659C92.0049 15.8877 91.8445 15.2897 91.5239 14.865C91.2119 14.4317 90.7785 14.215 90.2239 14.215C89.6865 14.215 89.2489 14.4013 88.9109 14.774C88.5815 15.138 88.4169 15.619 88.4169 16.217V17.4C88.4169 17.9633 88.5772 18.414 88.8979 18.752C89.2272 19.0813 89.6692 19.246 90.2239 19.246ZM99.8178 17.179H95.1378C95.1984 17.8377 95.3934 18.3403 95.7228 18.687C96.0521 19.025 96.5071 19.194 97.0878 19.194C97.8678 19.194 98.4874 18.8863 98.9468 18.271L99.5708 18.869C99.3194 19.2677 98.9684 19.5797 98.5178 19.805C98.0758 20.0217 97.5861 20.13 97.0488 20.13C96.0868 20.13 95.3414 19.8353 94.8128 19.246C94.2841 18.6567 94.0198 17.829 94.0198 16.763C94.0198 15.7057 94.2841 14.878 94.8128 14.28C95.3501 13.6733 96.0868 13.37 97.0228 13.37C97.8981 13.37 98.5828 13.669 99.0768 14.267C99.5708 14.8563 99.8178 15.684 99.8178 16.75V17.179ZM98.8038 16.269C98.8038 15.645 98.6391 15.1553 98.3098 14.8C97.9891 14.4447 97.5428 14.267 96.9708 14.267C96.4334 14.267 96.0044 14.449 95.6838 14.813C95.3718 15.177 95.1898 15.6927 95.1378 16.36H98.8038V16.269ZM104.494 10.9H107.172C108.178 10.9 108.936 11.134 109.447 11.602C109.967 12.07 110.227 12.7547 110.227 13.656C110.227 14.6093 109.959 15.3417 109.421 15.853C108.884 16.3557 108.113 16.607 107.107 16.607H105.69V20H104.494V10.9ZM107.263 15.619C107.844 15.619 108.29 15.4543 108.602 15.125C108.923 14.7957 109.083 14.3277 109.083 13.721C109.083 13.123 108.919 12.668 108.589 12.356C108.26 12.044 107.783 11.888 107.159 11.888H105.69V15.619H107.263ZM113.208 20.13C112.272 20.13 111.804 19.5797 111.804 18.479V10.354H112.909V18.466C112.909 18.7693 112.956 18.986 113.052 19.116C113.156 19.2373 113.329 19.298 113.572 19.298C113.762 19.298 113.979 19.246 114.222 19.142L114.391 19.805C114.061 20.0217 113.667 20.13 113.208 20.13ZM117.381 20.13C116.739 20.13 116.215 19.9437 115.808 19.571C115.4 19.1983 115.197 18.7173 115.197 18.128C115.197 17.478 115.439 16.9753 115.925 16.62C116.419 16.2647 117.116 16.087 118.018 16.087H119.357V15.749C119.357 15.2637 119.227 14.8953 118.967 14.644C118.715 14.384 118.347 14.254 117.862 14.254C117.472 14.254 117.112 14.3363 116.783 14.501C116.462 14.657 116.193 14.8867 115.977 15.19L115.418 14.514C115.712 14.1413 116.072 13.8597 116.497 13.669C116.921 13.4697 117.394 13.37 117.914 13.37C118.728 13.37 119.357 13.5693 119.799 13.968C120.241 14.3667 120.462 14.9387 120.462 15.684V18.739C120.462 19.077 120.514 19.4973 120.618 20H119.656C119.578 19.8007 119.521 19.4973 119.487 19.09H119.461C119.218 19.428 118.919 19.688 118.564 19.87C118.208 20.0433 117.814 20.13 117.381 20.13ZM117.55 19.259C117.879 19.259 118.182 19.1983 118.46 19.077C118.737 18.947 118.954 18.7737 119.11 18.557C119.274 18.3403 119.357 18.102 119.357 17.842V16.88H117.979C117.433 16.88 117.012 16.9883 116.718 17.205C116.423 17.4217 116.276 17.7293 116.276 18.128C116.276 18.4747 116.388 18.752 116.614 18.96C116.848 19.1593 117.16 19.259 117.55 19.259ZM127.217 13.5L124.864 20.117C124.266 21.7897 123.343 22.626 122.095 22.626C121.87 22.626 121.627 22.5957 121.367 22.535V21.69C121.523 21.742 121.714 21.768 121.939 21.768C122.381 21.768 122.758 21.6077 123.07 21.287C123.382 20.9663 123.681 20.4247 123.967 19.662L121.549 13.5H122.732L124.474 18.479L126.021 13.5H127.217ZM129.673 20.13C128.737 20.13 128.269 19.5797 128.269 18.479V10.354H129.374V18.466C129.374 18.7693 129.422 18.986 129.517 19.116C129.621 19.2373 129.795 19.298 130.037 19.298C130.228 19.298 130.445 19.246 130.687 19.142L130.856 19.805C130.527 20.0217 130.133 20.13 129.673 20.13ZM132.729 12.369C132.486 12.369 132.295 12.304 132.157 12.174C132.018 12.044 131.949 11.8663 131.949 11.641C131.949 11.4157 132.018 11.238 132.157 11.108C132.295 10.9693 132.486 10.9 132.729 10.9C132.971 10.9 133.162 10.9693 133.301 11.108C133.448 11.238 133.522 11.4157 133.522 11.641C133.522 11.8663 133.448 12.044 133.301 12.174C133.162 12.304 132.971 12.369 132.729 12.369ZM132.183 13.5H133.288V20H132.183V13.5ZM136.929 20.13C136.444 20.13 136.002 20.0303 135.603 19.831C135.213 19.6317 134.936 19.3673 134.771 19.038L135.486 18.544C135.633 18.778 135.837 18.96 136.097 19.09C136.357 19.22 136.639 19.285 136.942 19.285C137.306 19.285 137.605 19.181 137.839 18.973C138.082 18.7563 138.203 18.4877 138.203 18.167C138.203 17.907 138.108 17.6903 137.917 17.517C137.726 17.3437 137.388 17.166 136.903 16.984C136.166 16.7153 135.646 16.4337 135.343 16.139C135.048 15.8443 134.901 15.4803 134.901 15.047C134.901 14.5443 135.1 14.1413 135.499 13.838C135.898 13.526 136.426 13.37 137.085 13.37C137.51 13.37 137.895 13.461 138.242 13.643C138.597 13.825 138.87 14.0763 139.061 14.397L138.385 14.891C138.082 14.4403 137.648 14.215 137.085 14.215C136.764 14.215 136.5 14.2887 136.292 14.436C136.093 14.5833 135.993 14.774 135.993 15.008C135.993 15.242 136.097 15.4413 136.305 15.606C136.513 15.762 136.899 15.9483 137.462 16.165C138.129 16.4163 138.602 16.6937 138.879 16.997C139.156 17.2917 139.295 17.6687 139.295 18.128C139.295 18.7347 139.078 19.22 138.645 19.584C138.212 19.948 137.64 20.13 136.929 20.13ZM142.883 20.13C142.311 20.13 141.861 19.948 141.531 19.584C141.202 19.2113 141.037 18.7 141.037 18.05V14.358H139.867V13.5H141.037V11.771L142.09 11.446H142.142V13.5H143.988V14.358H142.142V17.946C142.142 18.388 142.225 18.7173 142.389 18.934C142.554 19.142 142.81 19.246 143.156 19.246C143.529 19.246 143.832 19.1983 144.066 19.103L144.144 19.922C143.858 20.0607 143.438 20.13 142.883 20.13Z" fill="#3E55D1"/>
</svg>
